# AST/ASF file generated using VICON BodyLanguage
# -----------------------------------------------
:version 1.10
:name VICON
:units
  mass 1.0
  length 0.45
  angle deg
:documentation
   .ast/.asf automatically generated from VICON data using
   VICON BodyBuilder and BodyLanguage model FoxedUp or BRILLIANT.MOD
:root
   order TX TY TZ RX RY RZ
   axis XYZ
   position 0 0 0  
   orientation 0 0 0 
:bonedata
  begin
     id 1 
     name lhipjoint
     direction 0.570549 -0.739093 0.358072 
     length 2.41801 
     axis 0 0 0  XYZ
  end
  begin
     id 2 
     name lfemur
     direction 0.34202 -0.939693 0  
     length 7.44434  
     axis 0 0 20  XYZ
    dof rx ry rz
    limits (-160.0 20.0)
           (-70.0 70.0)
           (-60.0 70.0)
  end
  begin
     id 3 
     name ltibia
     direction 0.34202 -0.939693 0   
     length 7.60047   
     axis 0 0 20   XYZ
    dof rx
    limits (-10.0 170.0)
  end
  begin
     id 4 
     name lfoot
     direction 0.0909041 -0.249757 0.964032   
     length 2.03437   
     axis -90 7.62852e-016 20   XYZ
    dof rx rz
    limits (-45.0 90.0)
           (-70.0 20.0)
  end
  begin
     id 5 
     name ltoes
     direction 1.53547e-011 -4.2174e-011 1   
     length 1.02054   
     axis -90 7.62852e-016 20   XYZ
    dof rx
    limits (-90.0 20.0)
  end
  begin
     id 6 
     name rhipjoint
     direction -0.558096 -0.746754 0.361784   
     length 2.3932  
     axis 0 0 0  XYZ 
  end
  begin
     id 7 
     name rfemur
     direction -0.34202 -0.939693 0   
     length 7.3886   
     axis 0 0 -20   XYZ
    dof rx ry rz
    limits (-160.0 20.0)
           (-70.0 70.0)
           (-70.0 60.0)
  end
  begin
     id 8 
     name rtibia
     direction -0.34202 -0.939693 0   
     length 7.4839   
     axis 0 0 -20   XYZ
    dof rx
    limits (-10.0 170.0)
 end
 begin
     id 9 
     name rfoot
     direction -0.114619 -0.314914 0.942174   
     length 2.25127  
     axis -90 -7.62852e-016 -20   XYZ
    dof rx rz
    limits (-45.0 90.0)
           (-20.0 70.0)
  end
  begin
     id 10 
     name rtoes
     direction -1.53518e-011 -4.21881e-011 1   
     length 1.11821   
     axis -90 -7.62852e-016 -20   XYZ
    dof rx
    limits (-90.0 20.0)
  end
  begin
     id 11 
     name lowerback
     direction -0.00902269 0.996426 -0.0839821   
     length 2.25052   
     axis 0 0 0   XYZ
    dof rx ry rz
    limits (-20.0 45.0)
           (-30.0 30.0)
           (-30.0 30.0)
  end
  begin
     id 12 
     name upperback
     direction 0.0370973 0.999169 -0.0168941   
     length 2.24876   
     axis 0 0 0   XYZ
    dof rx ry rz
    limits (-20.0 45.0)
           (-30.0 30.0)
           (-30.0 30.0)
  end
  begin
     id 13 
     name thorax
     direction 0.0402726 0.998931 0.0227027   
     length 2.26408   
     axis 0 0 0   XYZ
    dof rx ry rz
    limits (-20.0 45.0)
           (-30.0 30.0)
           (-30.0 30.0)
  end
  begin
     id 14 
     name lowerneck
     direction -0.0733697 0.98508 0.155675   
     length 1.58204   
     axis 0 0 0   XYZ
    dof rx ry rz
    limits (-20.0 45.0)
           (-30.0 30.0)
           (-30.0 30.0)
  end
  begin
     id 15 
     name upperneck
     direction 0.0426554 0.993501 -0.105526   
     length 1.61222   
     axis 0 0 0   XYZ
    dof rx ry rz
    limits (-20.0 45.0)
           (-30.0 30.0)
           (-30.0 30.0)
  end
  begin
     id 16
     name head
     direction 0.020792 0.998384 -0.0528868  
     length 1.61527  
     axis 0 0 0   XYZ
    dof rx ry rz
    limits (-20.0 45.0)
           (-30.0 30.0)
           (-30.0 30.0)
  end
  begin
     id 17 
     name lclavicle
     direction 0.967109 0.155462 -0.201325  
     length 3.59357  
     axis 0 0 0   XYZ
    dof ry rz
    limits (-20.0 10.0)
           (0.0 20.0)
  end
  begin
     id 18 
     name lhumerus
     direction 1 -4.48968e-011 2.38195e-027   
     length 5.38154   
     axis 180 -30 -90   XYZ
    dof rx ry rz
    limits (-60.0 90.0)
           (-90.0 90.0)
           (-90.0 90.0)
  end
  begin
     id 19
     name lradius
     direction 1 -4.48961e-011 4.85371e-027   
     length 3.33312   
     axis 180 -30 -90   XYZ
    dof rx
    limits (-10.0 170.0)
  end
  begin
     id 20
     name lwrist
     direction 1 -4.48961e-011 4.76515e-027   
     length 1.66656   
     axis -3.27502e-015 90 90   XYZ
    dof ry
    limits (-180.0 0.0)
 end
  begin
     id 21 
     name lhand
     direction 1 -4.48951e-011 9.53074e-027   
     length 0.710789   
     axis -6.08098e-015 90 90   XYZ
    dof rx rz
    limits (-90.0 90.0)
           (-45.0 45.0)
  end
  begin
     id 22 
     name lfingers
     direction 1 -4.48953e-011 1.90613e-026   
     length 0.573057   
     axis -1.21619e-014 90 90   XYZ
    dof rx
    limits (0.0 90.0)
  end
  begin
     id 23
     name lthumb
     direction 0.707107 -6.34973e-011 0.707107   
     length 0.822798   
     axis -90 45 -9.86923e-015   XYZ
    dof rx rz
    limits (-45.0 45.0)
           (-45.0 45.0)
  end
  begin
     id 24 
     name rclavicle
     direction -0.9585 0.265289 -0.104398   
     length 3.42039  
     axis 0 0 0   XYZ 
    dof ry rz
    limits (-10.0 20.0)
           (-20.0 0.0)
  end
  begin
     id 25 
     name rhumerus
     direction -1 -4.48977e-011 2.21478e-027  
     length 5.16954   
     axis 180 30 90   XYZ
    dof rx ry rz
    limits (-90.0 60.0)
           (-90.0 90.0)
           (-90.0 90.0)
  end
  begin
     id 26 
     name rradius
     direction -1 -4.48967e-011 5.63677e-027   
     length 3.38287   
     axis 180 30 90   XYZ
    dof rx
    limits (-10.0 170.0)
  end
  begin
     id 27 
     name rwrist
     direction -1 -4.48967e-011 4.76501e-027   
     length 1.69144   
     axis -3.27502e-015 -90 -90   XYZ
    dof ry
    limits (-180.0 0.0)
  end
  begin
     id 28
     name rhand
     direction -1 -4.48902e-011 9.53292e-027   
     length 0.817967   
     axis -6.08098e-015 -90 -90   XYZ
    dof rx rz
    limits (-90.0 90.0)
           (-45.0 45.0)
  end
  begin
     id 29
     name rfingers
     direction -1 -4.49012e-011 1.90561e-026   
     length 0.659466   
     axis -1.21619e-014 -90 -90   XYZ
    dof rx
    limits (0.0 90.0)
  end
  begin
     id 30
     name rthumb
     direction -0.707107 -6.34944e-011 0.707107   
     length 0.946865   
     axis -90 -45 9.86923e-015   XYZ
    dof rx rz
    limits (-45.0 45.0)
           (-45.0 45.0)
  end
:hierarchy
  begin
    root lhipjoint rhipjoint lowerback
    lhipjoint lfemur
    lfemur ltibia
    ltibia lfoot
    lfoot ltoes
    rhipjoint rfemur
    rfemur rtibia
    rtibia rfoot
    rfoot rtoes
    lowerback upperback
    upperback thorax
    thorax lowerneck lclavicle rclavicle
    lowerneck upperneck
    upperneck head
    lclavicle lhumerus
    lhumerus lradius
    lradius lwrist
    lwrist lhand lthumb
    lhand lfingers
    rclavicle rhumerus
    rhumerus rradius
    rradius rwrist
    rwrist rhand rthumb
    rhand rfingers
  end

#!OML:ASF F:\twosubjects\two\wednesday\Session 1\Justin1.ASF
:FULLY-SPECIFIED
:DEGREES
186
root -5.59514 17.5793 -0.875831 -171.749 5.84448 -172.401
lowerback 1.37522 5.36132 4.91383
upperback -1.45158 7.35445 1.01401
thorax -1.78501 3.63812 -1.86559
lowerneck -7.23029 -11.0391 -15.5507
upperneck 14.2706 -15.7944 13.0562
head 7.86614 -7.69405 5.10494
rclavicle 1.25731e-014 2.78299e-015
rhumerus 37.47 34.0297 -53.9314
rradius 48.3846
rwrist -6.64479
rhand -17.1039 24.2138
rfingers 7.12502
rthumb 9.13504 -5.56838
lclavicle 1.25731e-014 2.78299e-015
lhumerus -31.9657 14.5794 78.6434
lradius 29.9928
lwrist -9.04187
lhand -2.56004 35.6783
lfingers 7.12502
lthumb 23.1362 64.309
rfemur 12.5304 4.0395 33.7805
rtibia -1.27222e-014
rfoot -5.99994 8.45419
rtoes 26.2819
lfemur -37.2142 -1.94539 -4.80066
ltibia 25.7927
lfoot -15.2908 6.18397
ltoes -19.3865
187
root -5.6159 17.5645 -1.00668 -171.792 6.15342 -172.389
lowerback 1.29252 5.47915 5.05084
upperback -1.1453 7.48742 0.939311
thorax -1.38657 3.7138 -1.98608
lowerneck -7.84902 -11.2823 -15.4574
upperneck 14.2055 -16.0028 13.0268
head 7.97726 -7.75037 5.01563
rclavicle -2.67614e-014 -1.25234e-014
rhumerus 35.1262 34.0107 -57.9796
rradius 45.884
rwrist -6.18164
rhand -17.5111 24.0395
rfingers 7.12502
rthumb 8.74213 -5.75946
lclavicle -2.67614e-014 -1.25234e-014
lhumerus -30.9779 13.9432 79.4324
lradius 30.6187
lwrist -8.85227
lhand -2.68584 35.7424
lfingers 7.12502
lthumb 23.0154 64.3882
rfemur 13.0543 4.30299 33.6724
rtibia -2.22639e-014
rfoot -6.12921 8.47497
rtoes 25.6578
lfemur -37.3709 -1.54128 -5.15031
ltibia 25.4673
lfoot -15.7936 6.43807
ltoes -17.6681
188
root -5.64408 17.5581 -1.15032 -171.9 6.38004 -172.879
lowerback 1.09021 5.55776 4.75735
upperback -0.775582 7.54427 0.784312
thorax -0.903828 3.75633 -1.9378
lowerneck -8.55851 -11.5315 -15.3693
upperneck 14.0915 -16.1706 12.9081
head 8.07424 -7.78658 4.89844
rclavicle -1.96548e-014 -1.92821e-014
rhumerus 32.9427 33.9945 -61.3851
rradius 43.5808
rwrist -6.42358
rhand -18.2852 23.0338
rfingers 7.12502
rthumb 7.99505 -6.79502
lclavicle -1.96548e-014 -1.92821e-014
lhumerus -30.0679 13.3419 80.1814
lradius 31.4
lwrist -8.69279
lhand -2.57013 35.716
lfingers 7.12502
lthumb 23.1265 64.348
rfemur 13.6496 4.4324 32.9851
rtibia -2.22639e-014
rfoot -6.30588 8.52284
rtoes 24.6357
lfemur -37.4094 -1.44381 -6.07814
ltibia 25.337
lfoot -15.9287 6.9251
ltoes -18.9057
189
root -5.66947 17.5459 -1.2842 -171.709 6.58619 -172.881
lowerback 0.91734 5.67948 4.82374
upperback -0.615595 7.69001 0.759849
thorax -0.620942 3.83727 -1.96708
lowerneck -9.04108 -11.6981 -15.8794
upperneck 13.9437 -16.3552 13.5961
head 8.24892 -7.82551 5.14776
rclavicle -1.17507e-013 -2.5842e-015
rhumerus 30.7347 34.4514 -63.7425
rradius 41.812
rwrist -7.78027
rhand -17.8838 23.2137
rfingers 7.12502
rthumb 8.38248 -6.59994
lclavicle -1.17507e-013 -2.5842e-015
lhumerus -29.2789 12.8902 80.7687
lradius 32.1105
lwrist -8.89169
lhand -2.47534 35.5468
lfingers 7.12502
lthumb 23.2174 64.1673
rfemur 13.9675 4.66311 32.7807
rtibia 6.36111e-015
rfoot -6.11326 8.68915
rtoes 24.7834
lfemur -37.5912 -1.37535 -6.36364
ltibia 25.2422
lfoot -15.5408 7.42776
ltoes -19.6857
190
root -5.69374 17.524 -1.41038 -171.452 6.75081 -172.466
lowerback 1.03399 5.79769 5.22743
upperback -0.707072 7.87097 0.807556
thorax -0.721841 3.924 -2.1533
lowerneck -8.94939 -11.7709 -16.0607
upperneck 13.5013 -16.4436 13.9764
head 8.1534 -7.85367 5.29354
rclavicle 6.97237e-014 3.1408e-014
rhumerus 27.4221 34.1437 -67.4517
rradius 40.0916
rwrist -8.1809
rhand -17.6658 22.3201
rfingers 7.12502
rthumb 8.59282 -7.48503
lclavicle 6.97237e-014 3.1408e-014
lhumerus -28.8238 12.4886 81.1829
lradius 32.6921
lwrist -9.12921
lhand -2.6801 35.3795
lfingers 7.12502
lthumb 23.0209 64.0247
rfemur 14.1812 4.91226 33.0185
rtibia -6.36111e-014
rfoot -5.75601 8.95138
rtoes 25.7213
lfemur -37.752 -0.973262 -6.3289
ltibia 25.2174
lfoot -15.1143 7.45142
ltoes -18.2497
191
root -5.71751 17.5113 -1.54977 -171.438 6.86278 -172.877
lowerback 1.21676 5.83788 4.8205
upperback -0.838639 7.92443 0.669493
thorax -0.989432 3.94137 -2.10516
lowerneck -8.7811 -11.7931 -15.9609
upperneck 13.2754 -16.4076 13.6965
head 8.00875 -7.85359 5.20105
rclavicle -5.19325e-015 -1.98785e-016
rhumerus 23.5213 32.9463 -71.9642
rradius 38.2835
rwrist -7.68483
rhand -17.7034 21.4101
rfingers 7.12502
rthumb 8.55662 -8.39648
lclavicle -5.19325e-015 -1.98785e-016
lhumerus -28.8741 11.8046 81.5385
lradius 33.6161
lwrist -8.96748
lhand -2.5939 35.2915
lfingers 7.12502
lthumb 23.1037 63.9263
rfemur 14.605 4.97136 32.3995
rtibia -3.18055e-015
rfoot -5.64126 9.13826
rtoes 25.4721
lfemur -37.7197 -0.277157 -7.52463
ltibia 25.3879
lfoot -14.836 7.09651
ltoes -17.0622
192
root -5.74117 17.4975 -1.69525 -171.501 6.85684 -173.15
lowerback 1.471 5.83017 4.57739
upperback -0.955186 7.92414 0.6124
thorax -1.27535 3.93313 -2.07052
lowerneck -8.50004 -11.7715 -16.3802
upperneck 13.1536 -16.4113 14.0142
head 7.98637 -7.86937 5.38437
rclavicle -1.15519e-013 -4.77083e-015
rhumerus 19.9848 31.1409 -76.2333
rradius 35.9069
rwrist -7.44711
rhand -17.413 20.8174
rfingers 7.12502
rthumb 8.83681 -8.97762
lclavicle -1.15519e-013 -4.77083e-015
lhumerus -29.0773 11.1937 81.8624
lradius 34.75
lwrist -8.75147
lhand -2.36727 35.2188
lfingers 7.12502
lthumb 23.3211 63.8262
rfemur 15.1545 4.91186 31.9791
rtibia -1.59028e-014
rfoot -5.56473 9.14803
rtoes 23.7823
lfemur -37.562 0.243092 -8.51867
ltibia 25.6984
lfoot -14.421 6.77513
ltoes -16.203
193
root -5.76366 17.4684 -1.84181 -171.4 7.0091 -172.572
lowerback 1.78075 5.93823 5.02794
upperback -1.12349 8.1219 0.831667
thorax -1.58021 4.02321 -2.13981
lowerneck -8.37303 -11.8158 -16.7404
upperneck 13.016 -16.4572 14.2172
head 7.9774 -7.89928 5.50543
rclavicle 1.17283e-014 -3.18055e-015
rhumerus 15.9024 24.3236 -83.204
rradius 31.8906
rwrist -2.16599
rhand -17.2219 20.8022
rfingers 7.12502
rthumb 9.02122 -8.9849
lclavicle 1.17283e-014 -3.18055e-015
lhumerus -29.0735 10.9564 82.2981
lradius 35.5678
lwrist -8.85271
lhand -2.34865 35.0457
lfingers 7.12502
lthumb 23.339 63.6508
rfemur 15.6264 5.12721 32.4583
rtibia 6.36111e-015
rfoot -5.13334 9.10616
rtoes 23.2284
lfemur -37.3868 0.517478 -8.29833
ltibia 26.0982
lfoot -14.1536 6.6634
ltoes -16.0048
194
root -5.78286 17.4438 -2.00224 -171.409 7.18569 -172.273
lowerback 1.9102 6.08499 5.05219
upperback -1.1356 8.34295 1.06379
thorax -1.68114 4.13607 -1.93748
lowerneck -8.6989 -11.9089 -16.7461
upperneck 13.0008 -16.4309 13.8732
head 7.99426 -7.88345 5.37752
rclavicle 4.19684e-014 2.68359e-014
rhumerus 12.7915 22.045 -85.5851
rradius 30.1295
rwrist -1.91765
rhand -19.8804 19.2307
rfingers 7.12502
rthumb 6.45527 -10.651
lclavicle 4.19684e-014 2.68359e-014
lhumerus -28.8215 10.616 82.9681
lradius 36.1246
lwrist -8.60299
lhand -2.83908 33.6097
lfingers 7.12502
lthumb 22.8684 62.2738
rfemur 16.2711 5.31314 32.6517
rtibia -3.18055e-015
rfoot -4.92805 9.04588
rtoes 21.7915
lfemur -37.0149 0.782807 -8.41378
ltibia 26.6335
lfoot -14.2339 6.30037
ltoes -15.6327
195
root -5.80729 17.4259 -2.16788 -171.561 7.06439 -172.137
lowerback 1.88336 6.18475 5.18218
upperback -0.854892 8.46927 1.14031
thorax -1.36109 4.21148 -1.90613
lowerneck -9.69834 -12.1382 -16.4767
upperneck 13.219 -16.5379 13.4609
head 8.19729 -7.88966 5.12642
rclavicle -4.67392e-014 -8.64713e-015
rhumerus 10.3056 18.9549 -87.6745
rradius 28.3816
rwrist -1.19168
rhand -20.4135 18.9299
rfingers 7.12502
rthumb 5.94059 -10.9668
lclavicle -4.67392e-014 -8.64713e-015
lhumerus -28.1058 9.97014 83.6231
lradius 36.6688
lwrist -8.02083
lhand -3.68056 31.7215
lfingers 7.12502
lthumb 22.0607 60.4832
rfemur 17.0447 5.16904 32.6987
rtibia 6.36111e-014
rfoot -4.68409 9.03248
rtoes 19.2612
lfemur -36.5463 0.890364 -8.77134
ltibia 27.2607
lfoot -14.2437 5.6716
ltoes -11.6375
196
root -5.83527 17.4028 -2.32732 -171.381 6.84662 -171.83
lowerback 1.6375 6.27257 5.60813
upperback -0.673883 8.57584 1.14456
thorax -0.969954 4.27612 -2.08318
lowerneck -10.6178 -12.4642 -16.3852
upperneck 13.3597 -16.8568 13.4728
head 8.45015 -7.98405 5.01075
rclavicle -6.02318e-014 -1.02374e-014
rhumerus 8.11212 15.3334 -89.584
rradius 26.58
rwrist -0.438999
rhand -18.5438 18.4305
rfingers 7.12502
rthumb 7.74551 -11.4077
lclavicle -6.02318e-014 -1.02374e-014
lhumerus -27.4859 9.46528 83.9626
lradius 37.4914
lwrist -8.01323
lhand -3.77038 31.5584
lfingers 7.12502
lthumb 21.9744 60.3302
rfemur 17.4322 5.02634 32.8954
rtibia -1.59028e-014
rfoot -4.00853 9.07856
rtoes 18.7992
lfemur -36.4341 0.846469 -8.86169
ltibia 27.8884
lfoot -14.0751 4.98507
ltoes -12.1743
197
root -5.85848 17.3857 -2.49783 -171.07 6.7613 -171.738
lowerback 1.24997 6.33532 5.59738
upperback -0.752261 8.64172 1.21299
thorax -0.842558 4.31398 -1.96573
lowerneck -10.735 -12.6834 -16.493
upperneck 13.3388 -17.0869 13.3574
head 8.49842 -8.09491 4.94061
rclavicle -7.75012e-014 -1.90833e-014
rhumerus 5.58876 11.4769 -91.2312
rradius 24.7132
rwrist 0.827131
rhand -17.6996 17.8955
rfingers 7.12502
rthumb 8.56028 -11.9109
lclavicle -7.75012e-014 -1.90833e-014
lhumerus -27.6065 9.01172 84.1589
lradius 38.5264
lwrist -7.84685
lhand -3.2752 31.8636
lfingers 7.12502
lthumb 22.4498 60.5789
rfemur 17.6772 5.02041 32.8321
rtibia 1.90833e-014
rfoot -3.48754 9.12104
rtoes 18.798
lfemur -36.3379 0.744473 -9.10414
ltibia 28.4051
lfoot -13.3396 4.17369
ltoes -14.2464
